<?xml version="1.0" encoding="UTF-8"?>
<svg id="Layer_1" xmlns="http://www.w3.org/2000/svg" version="1.1" viewBox="0 0 1080 1080">
  <defs>
    <style>
      .st0 { fill: #44593b; }
      .st1 { fill: #fff; }
    </style>
  </defs>
  <rect class="st0" width="1080" height="1080"/>
  <path class="st1" d="M690.74,730.72c-.03-.78-.03-1.56-.07-2.34,0-.09-.01-.2-.02-.29-.03-.8-.06-1.58-.12-2.38-.07-.95-.14-1.9-.2-2.85-.05-.73-.14-1.43-.22-2.15-.01-.14-.03-.29-.04-.43-.05-.47-.08-.95-.14-1.42-.1-1.36-.27-2.71-.44-4.07-.26-1.81-.57-3.65-.91-5.46-.05-.29-.09-.59-.15-.88-8.62-46.53-31.8-81.97-66.01-114.22-.63-.6-1.3-1.14-1.94-1.72-1.83-1.68-3.69-3.34-5.58-4.95-1.08-.92-2.15-1.85-3.25-2.75-2.36-1.95-4.75-3.87-7.17-5.74-1.06-.82-2.14-1.63-3.21-2.44-2.01-1.52-4.04-3.01-6.08-4.49-39.16-28.31-87.51-62.01-112.05-104.12-1.36-2.34-2.71-4.68-4.01-7.05-6.04-10.98-11.5-22.27-16.69-33.67-.21-.47-.4-.94-.61-1.42-3.75-9.61-6.78-19.41-8.94-29.31-.19-.9-.38-1.79-.57-2.7-4.37-21.56-5.93-43.8-2.54-65.6,2.47-15.83,8.03-31.46,16.95-44.85,9.49-14.24,27.33-28.48,45.06-19.73,4.59,2.26,9.06,5.13,12.12,9.03,1.83,2.34,3.15,5.05,3.68,8.22,1.9,11.29-2.78,23.83-10.07,33.37-2.31,3.05-4.88,5.8-7.59,8.07-1.25,1.05-2.61,2-4,2.88-.92.61-1.86,1.19-2.81,1.76-7.83,4.71-21.94,5.02-27.5-3.63-1.16-1.81-1.82-3.81-2.19-5.89-.46-2.91-.28-5.96-.16-8.95.03-.73.05-1.51.17-2.23.02-.09.05-.52.08-.55-.38.43-.82.86-1.15,1.32s-.77.99-1.06,1.49c-3.21,5.62-5.66,12.03-6.86,18.49-.18.73-.34,1.49-.46,2.38-.29,2.25-.55,4.7-.79,7.25-.7,7.66-1.11,16.24-.91,23.03.61,20.51,7.64,54.39,17.41,72.76,13.38,25.17,25.71,38.89,50.16,51.95,14.16,7.56,32.07,10.21,45.64,9.41,20.98-1.23,40.74-8.94,58.48-21.59,25.3-18.05,44.83-49.83,51.52-80.38,2.81-12.82,5.07-27.13,4.56-40.63-.68-17.94-2.82-34.35-7.46-50.16-2.93-9.99-5.81-19.21-9.95-28.6-8.41-19.29-21.72-36.98-38.63-50.71-29.35-23.87-60.86-33.86-91.19-33.54-.23,0-.46-.03-.69-.03h-.1c-.3,0-.59.03-.89.04-.04,0-.08,0-.12,0-.2-.03-.41-.03-.61,0-.88.02-1.76.1-2.63.15-1.26.06-2.51.11-3.77.21-1.12.09-2.23.21-3.34.32-1.26.13-2.51.25-3.76.41-1.09.14-2.17.32-3.25.49-1.27.19-2.54.38-3.8.61-1.04.19-2.07.42-3.1.63-1.3.27-2.59.52-3.88.83-.97.23-1.93.49-2.9.74-1.34.34-2.67.68-4,1.06-.89.26-1.78.55-2.67.82-1.38.43-2.77.85-4.13,1.32-.8.27-1.6.58-2.4.87-1.44.52-2.88,1.04-4.31,1.6-.7.28-1.39.58-2.09.87-1.51.62-3.01,1.25-4.5,1.92-.59.27-1.17.56-1.76.83-1.57.74-3.14,1.48-4.69,2.26-.48.24-.95.5-1.42.75-1.65.86-3.28,1.73-4.9,2.64-.35.2-.7.42-1.05.62-1.72.99-3.44,2-5.12,3.06-.22.14-.44.29-.66.43-1.8,1.14-3.59,2.31-5.35,3.52-.09.06-.18.13-.28.2-39.02,27.02-67.02,71.21-70.97,119.15-1.81,21.93,1.84,42.9,8.19,63.72,10.51,34.48,33.88,63.16,59.72,87.53.63.59,1.3,1.14,1.94,1.72,1.83,1.68,3.69,3.33,5.57,4.95,1.08.92,2.16,1.85,3.25,2.75,2.36,1.95,4.75,3.86,7.16,5.74,1.06.82,2.14,1.63,3.22,2.44,25.8,19.45,51.62,37.58,75.97,58.73,16.4,14.25,31.19,31.05,42.16,49.88,1.36,2.34,2.71,4.68,4.01,7.05,6.04,10.98,11.5,22.27,16.69,33.67.21.47.4.94.61,1.41,3.75,9.62,6.79,19.42,8.94,29.33.19.89.38,1.78.56,2.68,4.37,21.56,5.93,43.8,2.54,65.6-2.47,15.83-8.03,31.46-16.95,44.85-9.49,14.24-27.33,28.48-45.06,19.73-4.59-2.26-9.06-5.13-12.12-9.03-1.83-2.34-3.15-5.05-3.68-8.22-1.9-11.29,2.78-23.83,10.07-33.37,2.31-3.05,4.88-5.8,7.59-8.07,1.25-1.05,2.61-2,4-2.88.92-.61,1.86-1.19,2.81-1.76,7.83-4.71,21.94-5.02,27.5,3.63,3.45,5.17,2.33,11.41,2.29,17.22.87-.51,1.85-2.3,2.35-3.17,3.61-6.31,5.42-14.09,7.12-21.18,1.44-6.02,2.1-19.22,1.83-28.27-.61-20.51-5-45.95-13.74-66.29-11.26-26.19-29.63-46.29-54.09-59.34-14.16-7.56-32.07-10.21-45.64-9.41-20.98,1.23-40.74,8.94-58.48,21.6-25.3,18.05-44.83,49.83-51.52,80.38-2.81,12.81-5.07,27.13-4.56,40.63.68,17.94,2.82,34.36,7.46,50.16,2.93,9.99,5.81,19.21,9.95,28.6,8.41,19.29,21.72,36.98,38.63,50.71,29.35,23.87,60.86,33.86,91.19,33.54.23,0,.46.03.69.03h.1c.3,0,.6-.03.89-.04.04,0,.08,0,.12,0,.2.03.41.03.61,0,.88-.02,1.76-.1,2.63-.14,1.26-.06,2.51-.11,3.77-.21,1.12-.09,2.23-.21,3.34-.32,1.26-.13,2.51-.25,3.76-.41,1.09-.14,2.17-.32,3.25-.49,1.27-.19,2.54-.38,3.8-.61,1.04-.19,2.07-.42,3.1-.63,1.3-.27,2.59-.53,3.88-.83.97-.23,1.93-.49,2.9-.74,1.34-.34,2.67-.68,4-1.06.9-.26,1.78-.55,2.67-.82,1.38-.43,2.77-.85,4.13-1.32.8-.27,1.6-.58,2.4-.87,1.44-.52,2.88-1.04,4.31-1.6.7-.28,1.39-.58,2.09-.87,1.51-.62,3.01-1.25,4.5-1.92.59-.27,1.17-.56,1.76-.83,1.57-.74,3.14-1.48,4.69-2.26.48-.24.95-.5,1.42-.75,1.65-.86,3.28-1.73,4.9-2.64.35-.2.7-.42,1.05-.62,1.72-.99,3.44-2,5.12-3.06.22-.14.44-.29.66-.43,1.8-1.14,3.59-2.31,5.35-3.52.09-.06.18-.13.28-.2,39.02-27.02,67.02-71.22,70.97-119.15.07-1.29.17-2.54.24-3.83.1-1.81.17-3.63.2-5.45.03-1.82.02-3.64-.03-5.47Z"/>
</svg>
