<?xml version="1.0" encoding="UTF-8"?>
<svg id="Layer_1" xmlns="http://www.w3.org/2000/svg" version="1.1" viewBox="0 0 1080 1080">
  <defs>
    <style>
      .st0 { fill: #44593b; }
      .st1 { fill: #fff; }
    </style>
  </defs>
  <rect class="st0" width="1080" height="1080"/>
  <g>
    <g>
      <g>
        <path class="st1" d="M313.76,667.68c-.37-5.88-1.78-11.45-4.23-16.72-2.45-5.27-6-9.56-10.66-12.87-4.66-3.31-10.6-4.96-17.83-4.96-7.6,0-13.42,2.15-17.46,6.43-4.04,4.29-6.07,9.31-6.07,15.07,0,5.15,1.47,9.47,4.41,12.96s6.77,6.56,11.49,9.19c4.72,2.64,9.71,5.18,14.98,7.63,4.65,2.08,9.31,4.32,13.97,6.71,4.66,2.39,8.88,5.12,12.68,8.18,3.8,3.06,6.83,6.71,9.1,10.94,2.27,4.23,3.4,9.28,3.4,15.16,0,6.74-1.69,12.74-5.05,18.01-3.37,5.27-8.24,9.41-14.61,12.41-6.37,3-14.15,4.5-23.34,4.5-5.51,0-11.21-.8-17.09-2.39s-11.09-3.92-15.62-6.98l.92,7.9h-9.56l-1.1-39.15h7.17c.61,10.78,4.35,18.96,11.21,24.54,6.86,5.58,15.13,8.36,24.81,8.36,4.78,0,9.19-.89,13.23-2.67,4.04-1.77,7.26-4.38,9.65-7.81,2.39-3.43,3.58-7.6,3.58-12.5,0-5.51-1.47-10.11-4.41-13.78s-6.74-6.86-11.39-9.56c-4.66-2.69-9.62-5.27-14.89-7.72-4.66-2.08-9.25-4.29-13.78-6.62-4.54-2.33-8.67-4.99-12.41-7.99-3.74-3-6.74-6.59-9.01-10.75-2.27-4.16-3.4-9.19-3.4-15.07,0-3.18.55-6.62,1.65-10.29,1.1-3.68,3.03-7.2,5.79-10.57,2.76-3.37,6.55-6.13,11.39-8.27,4.84-2.14,11-3.22,18.47-3.22,4.65,0,9.89.64,15.71,1.93,5.82,1.29,11.24,3.77,16.27,7.44l-.74-7.9h9.37v40.43h-6.62Z"/>
        <path class="st1" d="M424.21,760.31c-11.64,0-21.63-1.96-29.96-5.88-8.33-3.92-15.1-9.16-20.31-15.71-5.21-6.55-9.04-13.81-11.49-21.78-2.45-7.96-3.68-15.93-3.68-23.89s1.29-15.53,3.86-23.43,6.52-15.16,11.85-21.78c5.33-6.62,12.01-11.95,20.03-15.99,8.02-4.04,17.43-6.07,28.21-6.07s21.01,2.02,29.22,6.07c8.21,4.04,14.98,9.4,20.31,16.08,5.33,6.68,9.31,13.94,11.95,21.78,2.63,7.84,3.95,15.62,3.95,23.34s-1.29,15.35-3.86,23.25-6.52,15.19-11.85,21.87c-5.33,6.68-11.98,12.04-19.94,16.08-7.97,4.04-17.4,6.07-28.3,6.07ZM424.58,752.77c7.6,0,14.21-1.62,19.85-4.87,5.63-3.25,10.32-7.6,14.06-13.05,3.74-5.45,6.55-11.52,8.45-18.2,1.9-6.68,2.85-13.38,2.85-20.12,0-7.6-1.04-15.13-3.12-22.61-2.09-7.47-5.15-14.27-9.19-20.4-4.04-6.13-9.04-11.06-14.98-14.79-5.94-3.74-12.71-5.61-20.31-5.61s-14.24,1.65-19.94,4.96c-5.7,3.31-10.42,7.69-14.15,13.14-3.74,5.45-6.56,11.52-8.45,18.19-1.9,6.68-2.85,13.45-2.85,20.31s.95,13.78,2.85,21.14c1.9,7.35,4.81,14.22,8.73,20.58,3.92,6.37,8.88,11.52,14.89,15.44,6,3.92,13.11,5.88,21.32,5.88Z"/>
        <path class="st1" d="M560.4,759.21l-32.9-97.78c-2.08-6.49-3.74-11.61-4.96-15.35-1.23-3.74-2.15-6.95-2.76-9.65-1.72.12-3.43.18-5.15.18s-3.43.06-5.15.18v-8.09h44.66v6.07c-7.11.37-11.37,1.96-12.77,4.78-1.41,2.82-1.13,7.9.83,15.25,2.08,8.09,4.35,15.38,6.8,21.87,2.45,6.5,4.84,13.48,7.17,20.95,1.71,5.51,3.46,10.6,5.24,15.25,1.77,4.66,3.58,9.86,5.42,15.62h.37c.61-2.08,1.25-4.29,1.93-6.62.67-2.33,1.38-4.6,2.11-6.8.74-2.21,1.41-4.26,2.02-6.16.61-1.9,1.1-3.46,1.47-4.69,3.43-10.9,6.83-21.47,10.2-31.7,3.37-10.23,6.34-19.24,8.91-27.02,2.57-7.78,4.35-13.51,5.33-17.18h5.88c1.1,4.04,2.69,9.19,4.78,15.44,2.08,6.25,4.29,12.8,6.62,19.67,2.33,6.86,4.5,13.36,6.52,19.48,2.02,6.13,3.64,11.03,4.87,14.7,1.71,5.51,3.52,10.97,5.42,16.36,1.9,5.39,3.64,10.97,5.24,16.72h.55c1.1-3.55,2.3-7.35,3.58-11.39s2.6-8.15,3.95-12.31c3.18-9.07,5.79-16.66,7.81-22.79,2.02-6.13,3.68-11.21,4.96-15.25,1.29-4.04,2.39-7.56,3.31-10.57.92-3,1.87-5.91,2.85-8.73.73-2.08,1.56-4.32,2.48-6.71.92-2.39,1.99-4.62,3.22-6.71-2.45.12-4.9.22-7.35.28-2.45.06-4.9.16-7.35.28v-8.09h37.31v6.07c-4.17.49-7.44,1.41-9.83,2.76-2.39,1.35-4.5,3.86-6.34,7.54-1.84,3.68-4.04,9.31-6.62,16.91-5.64,16.66-11.12,33.05-16.45,49.16-5.33,16.11-10.87,32.13-16.63,48.06h-5.51l-27.94-79.76c-1.1-3.19-2.18-6.31-3.22-9.37-1.04-3.06-2.11-6.13-3.22-9.19-.98,3.06-1.99,6.13-3.03,9.19-1.04,3.06-2.05,6.13-3.03,9.19l-26.28,79.95h-5.33Z"/>
        <path class="st1" d="M816.42,760.31l-73.33-98.51c-1.1-1.47-2.18-2.91-3.22-4.32-1.04-1.41-2.11-2.85-3.22-4.32h-.18l.55,78.66v9.19c0,3.06-.12,6.07-.37,9.01,2.2-.12,4.41-.24,6.62-.37,2.21-.12,4.41-.24,6.62-.37v8.09h-33.63v-6.07c3.8,0,6.52-.83,8.18-2.48,1.65-1.65,2.73-3.61,3.22-5.88.49-2.27.73-4.32.73-6.16l.18-88.4v-12.31c-1.96.12-3.98.25-6.07.37-2.08.12-4.17.25-6.25.37v-8.09h21.87l68.92,92.26c1.59,2.08,3.15,4.17,4.69,6.25,1.53,2.08,3.09,4.17,4.69,6.25h.18l.18-84.17c0-2.45.06-4.81.18-7.08.12-2.27.24-4.32.37-6.16-2.2.12-4.41.25-6.62.37-2.21.12-4.41.25-6.62.37v-8.09h33.82v6.07c-4.53.12-7.66,1.17-9.37,3.12-1.72,1.96-2.64,4.59-2.76,7.9-.12,3.31-.18,7.17-.18,11.58l-.37,102.92h-8.82Z"/>
      </g>
      <g>
        <path class="st1" d="M299.75,828.2c-2.46,0-4.61-.57-6.46-1.72-1.85-1.15-3.3-2.78-4.33-4.9-1.04-2.12-1.56-4.62-1.56-7.52s.52-5.45,1.56-7.56c1.04-2.12,2.47-3.75,4.29-4.9,1.83-1.15,3.92-1.72,6.27-1.72,1.46,0,2.82.22,4.08.65,1.27.43,2.4,1.05,3.4,1.85s1.83,1.76,2.49,2.86c.66,1.1,1.11,2.32,1.36,3.66h-3.63c-.28-.89-.66-1.68-1.13-2.39s-1.03-1.31-1.68-1.81c-.65-.51-1.38-.89-2.19-1.16-.81-.27-1.71-.4-2.68-.4-1.62,0-3.09.42-4.41,1.25-1.32.83-2.37,2.06-3.15,3.68-.78,1.62-1.17,3.62-1.17,5.99s.39,4.32,1.18,5.94c.78,1.62,1.85,2.84,3.19,3.68,1.34.84,2.86,1.26,4.55,1.26,1.56,0,2.92-.33,4.11-.99,1.18-.66,2.11-1.6,2.77-2.81.66-1.22.99-2.65.99-4.3l1.05.2h-8.2v-3.07h10.59v3.02c0,2.28-.49,4.26-1.46,5.94-.98,1.68-2.31,2.98-4.01,3.9-1.7.92-3.64,1.38-5.84,1.38Z"/>
        <path class="st1" d="M323.02,827.83l10.01-27.58h4.07l10.14,27.58h-3.7l-5.85-16.36c-.36-1.01-.77-2.27-1.25-3.78s-1.05-3.44-1.73-5.78h.67c-.67,2.37-1.24,4.32-1.73,5.86-.49,1.54-.89,2.77-1.21,3.71l-5.68,16.36h-3.74ZM328.05,820.13v-3.07h14.16v3.07h-14.16Z"/>
        <path class="st1" d="M361.02,827.83v-27.58h9.44c2.15,0,3.91.37,5.3,1.1,1.39.73,2.42,1.74,3.09,3.03.67,1.28,1.01,2.75,1.01,4.39s-.34,3.09-1.01,4.35c-.67,1.26-1.7,2.24-3.08,2.95-1.38.71-3.15,1.06-5.29,1.06h-7.5v-3.13h7.33c1.46,0,2.63-.21,3.51-.64.88-.43,1.53-1.03,1.93-1.81.41-.78.61-1.71.61-2.79s-.2-2.05-.61-2.86-1.05-1.44-1.94-1.89c-.89-.45-2.07-.67-3.54-.67h-5.74v24.49h-3.52ZM376.86,827.83l-6.66-12.42h3.96l6.77,12.42h-4.07Z"/>
        <path class="st1" d="M398.41,800.25v27.58h-3.52v-27.58h3.52ZM403.5,827.83h-6.66v-3.11h6.44c2.25,0,4.11-.43,5.58-1.29,1.47-.86,2.58-2.09,3.3-3.69.73-1.6,1.09-3.52,1.09-5.76s-.36-4.11-1.08-5.69c-.72-1.59-1.8-2.8-3.22-3.66-1.43-.85-3.21-1.28-5.34-1.28h-6.92v-3.11h7.16c2.69,0,4.99.55,6.89,1.65,1.91,1.1,3.37,2.67,4.39,4.73,1.02,2.05,1.53,4.51,1.53,7.36s-.51,5.35-1.54,7.41c-1.02,2.07-2.52,3.66-4.48,4.77-1.96,1.11-4.34,1.67-7.14,1.67Z"/>
        <path class="st1" d="M431.73,827.83v-27.58h16.81v3.11h-13.29v9h12.38v3.11h-12.38v9.25h13.46v3.11h-16.97Z"/>
        <path class="st1" d="M463.99,827.83v-27.58h4.15l11.22,17.64c.3.46.65,1.04,1.07,1.76.42.72.87,1.52,1.36,2.42.49.9.96,1.86,1.43,2.89h-.5c-.11-1.06-.19-2.08-.24-3.04s-.08-1.86-.09-2.68c-.01-.81-.02-1.51-.02-2.07v-16.92h3.52v27.58h-4.18l-10-15.7c-.46-.73-.92-1.48-1.38-2.25-.46-.77-.99-1.68-1.58-2.74s-1.33-2.36-2.2-3.92h.65c.06,1.37.12,2.63.17,3.79.05,1.16.09,2.17.12,3.04.03.86.05,1.54.05,2.04v15.73h-3.54Z"/>
        <path class="st1" d="M519.8,827.83l10.01-27.58h4.07l10.14,27.58h-3.7l-5.85-16.36c-.36-1.01-.77-2.27-1.25-3.78s-1.05-3.44-1.73-5.78h.67c-.67,2.37-1.24,4.32-1.73,5.86-.49,1.54-.89,2.77-1.21,3.71l-5.68,16.36h-3.74ZM524.83,820.13v-3.07h14.16v3.07h-14.16Z"/>
        <path class="st1" d="M557.8,827.83v-27.58h4.15l11.22,17.64c.3.46.65,1.04,1.07,1.76.42.72.87,1.52,1.36,2.42.49.9.96,1.86,1.43,2.89h-.5c-.11-1.06-.19-2.08-.24-3.04s-.08-1.86-.09-2.68c-.01-.81-.02-1.51-.02-2.07v-16.92h3.52v27.58h-4.18l-10-15.7c-.46-.73-.92-1.48-1.38-2.25-.46-.77-.99-1.68-1.58-2.74s-1.33-2.36-2.2-3.92h.65c.06,1.37.12,2.63.17,3.79.05,1.16.09,2.17.12,3.04.03.86.05,1.54.05,2.04v15.73h-3.54Z"/>
        <path class="st1" d="M599.36,800.25v27.58h-3.52v-27.58h3.52ZM604.44,827.83h-6.66v-3.11h6.44c2.25,0,4.11-.43,5.58-1.29,1.47-.86,2.58-2.09,3.3-3.69.73-1.6,1.09-3.52,1.09-5.76s-.36-4.11-1.08-5.69c-.72-1.59-1.8-2.8-3.22-3.66-1.43-.85-3.21-1.28-5.34-1.28h-6.92v-3.11h7.16c2.69,0,4.99.55,6.89,1.65,1.91,1.1,3.37,2.67,4.39,4.73,1.02,2.05,1.53,4.51,1.53,7.36s-.51,5.35-1.54,7.41c-1.02,2.07-2.52,3.66-4.48,4.77-1.96,1.11-4.34,1.67-7.14,1.67Z"/>
        <path class="st1" d="M652.81,827.83v-27.58h3.52v11.92h14.47v-11.92h3.52v27.58h-3.52v-12.55h-14.47v12.55h-3.52Z"/>
        <path class="st1" d="M701.64,828.2c-2.36,0-4.46-.57-6.3-1.71-1.85-1.14-3.3-2.77-4.36-4.89-1.06-2.12-1.59-4.63-1.59-7.54s.53-5.45,1.59-7.56c1.06-2.12,2.51-3.75,4.36-4.9,1.84-1.15,3.95-1.72,6.3-1.72s4.45.57,6.29,1.72c1.84,1.15,3.29,2.78,4.34,4.9,1.05,2.12,1.58,4.64,1.58,7.56s-.53,5.43-1.58,7.54c-1.05,2.12-2.5,3.75-4.34,4.89s-3.94,1.71-6.29,1.71ZM701.64,824.94c1.64,0,3.12-.42,4.45-1.25,1.33-.83,2.38-2.06,3.16-3.68.78-1.62,1.18-3.61,1.18-5.95s-.39-4.37-1.18-5.99c-.78-1.62-1.84-2.85-3.16-3.68-1.33-.83-2.81-1.25-4.45-1.25s-3.15.42-4.48,1.26-2.39,2.07-3.17,3.69c-.78,1.62-1.18,3.61-1.18,5.97s.39,4.32,1.18,5.94c.78,1.62,1.84,2.84,3.17,3.68,1.33.84,2.83,1.26,4.48,1.26Z"/>
        <path class="st1" d="M728.92,827.83v-27.58h5l6.79,17.4c.16.41.34.92.55,1.53.2.61.42,1.27.65,1.99.23.72.45,1.43.66,2.14.21.71.39,1.37.56,1.97h-.78c.17-.57.36-1.2.57-1.9.21-.7.43-1.41.66-2.13s.45-1.4.66-2.03c.21-.63.39-1.15.56-1.57l6.7-17.4h5.02v27.58h-3.46v-15.75c0-.57,0-1.22,0-1.94s.02-1.49.04-2.3.04-1.62.06-2.44.03-1.63.05-2.41h.3c-.26.85-.53,1.72-.82,2.6-.29.88-.57,1.73-.85,2.55-.28.82-.54,1.57-.79,2.25-.25.68-.46,1.24-.63,1.68l-6.16,15.75h-3.05l-6.26-15.75c-.17-.43-.38-.98-.61-1.64-.23-.66-.49-1.39-.77-2.2-.28-.81-.56-1.66-.86-2.55-.3-.89-.6-1.79-.91-2.69h.33c.02.69.05,1.44.06,2.24s.03,1.61.05,2.43c.01.82.02,1.61.04,2.37.01.76.02,1.44.02,2.05v15.75h-3.35Z"/>
        <path class="st1" d="M772.65,827.83v-27.58h16.81v3.11h-13.29v9h12.38v3.11h-12.38v9.25h13.46v3.11h-16.97Z"/>
      </g>
    </g>
    <path class="st1" d="M612.13,513.53c-.02-.38-.02-.75-.03-1.13,0-.05,0-.1,0-.14-.01-.38-.03-.76-.06-1.15-.03-.46-.07-.92-.1-1.37-.03-.35-.07-.69-.11-1.04,0-.07-.01-.14-.02-.21-.02-.23-.04-.46-.07-.69-.05-.65-.13-1.31-.21-1.96-.13-.87-.28-1.76-.44-2.64-.03-.14-.04-.28-.07-.43-4.16-22.44-15.34-39.54-31.84-55.1-.3-.29-.63-.55-.94-.83-.88-.81-1.78-1.61-2.69-2.39-.52-.45-1.04-.89-1.57-1.33-1.14-.94-2.29-1.87-3.46-2.77-.51-.4-1.03-.79-1.55-1.18-.97-.73-1.95-1.45-2.93-2.17-18.89-13.66-42.22-29.91-54.06-50.23-.66-1.13-1.31-2.26-1.93-3.4-2.91-5.3-5.55-10.74-8.05-16.24-.1-.23-.19-.46-.29-.68-1.81-4.64-3.27-9.36-4.31-14.14-.09-.43-.19-.87-.27-1.3-2.11-10.4-2.86-21.13-1.23-31.65,1.19-7.64,3.88-15.18,8.18-21.64,4.58-6.87,13.18-13.74,21.74-9.52,2.21,1.09,4.37,2.48,5.85,4.36.88,1.13,1.52,2.43,1.78,3.97.92,5.45-1.34,11.5-4.86,16.1-1.11,1.47-2.36,2.8-3.66,3.89-.61.51-1.26.97-1.93,1.39-.44.29-.9.57-1.36.85-3.78,2.27-10.58,2.42-13.26-1.75-.56-.87-.88-1.84-1.06-2.84-.22-1.41-.13-2.87-.08-4.32.01-.35.02-.73.08-1.08,0-.04.03-.25.04-.27-.18.21-.39.41-.56.64s-.37.48-.51.72c-1.55,2.71-2.73,5.8-3.31,8.92-.09.35-.17.72-.22,1.15-.14,1.08-.27,2.27-.38,3.5-.34,3.69-.54,7.83-.44,11.11.29,9.89,3.69,26.24,8.4,35.1,6.45,12.14,12.4,18.76,24.2,25.06,6.83,3.65,15.47,4.93,22.02,4.54,10.12-.6,19.65-4.31,28.21-10.42,12.2-8.71,21.63-24.04,24.85-38.78,1.36-6.18,2.45-13.09,2.2-19.6-.33-8.65-1.36-16.57-3.6-24.2-1.41-4.82-2.8-9.27-4.8-13.8-4.06-9.31-10.48-17.84-18.64-24.46-14.16-11.51-29.36-16.33-43.99-16.18-.11,0-.22-.01-.33-.02h-.05c-.14,0-.29.02-.43.02-.02,0-.04,0-.06,0-.1-.02-.2-.02-.29,0-.43.01-.85.05-1.27.07-.61.03-1.21.05-1.82.1-.54.04-1.08.1-1.61.16-.61.06-1.21.12-1.81.2-.53.07-1.05.15-1.57.24-.61.09-1.22.18-1.83.29-.5.09-1,.2-1.5.3-.62.13-1.25.25-1.87.4-.47.11-.93.24-1.4.36-.64.17-1.29.33-1.93.51-.43.12-.86.26-1.29.4-.67.21-1.33.41-1.99.64-.39.13-.77.28-1.16.42-.7.25-1.39.5-2.08.77-.34.13-.67.28-1.01.42-.73.3-1.45.6-2.17.93-.29.13-.57.27-.85.4-.76.35-1.52.71-2.26,1.09-.23.12-.46.24-.69.36-.79.41-1.58.83-2.36,1.27-.17.1-.34.2-.51.3-.83.48-1.66.97-2.47,1.48-.11.07-.21.14-.32.21-.87.55-1.73,1.11-2.58,1.7-.05.03-.09.06-.13.1-18.82,13.03-32.33,34.35-34.24,57.48-.87,10.58.89,20.7,3.95,30.74,5.07,16.63,16.34,30.47,28.81,42.22.3.29.63.55.94.83.88.81,1.78,1.61,2.69,2.39.52.45,1.04.89,1.57,1.33,1.14.94,2.29,1.86,3.46,2.77.51.4,1.03.79,1.55,1.18,12.45,9.38,24.9,18.13,36.65,28.33,7.91,6.87,15.05,14.98,20.34,24.06.66,1.13,1.31,2.26,1.93,3.4,2.91,5.3,5.55,10.74,8.05,16.24.1.23.19.45.29.68,1.81,4.64,3.27,9.37,4.31,14.15.09.43.18.86.27,1.29,2.11,10.4,2.86,21.13,1.23,31.65-1.19,7.64-3.88,15.18-8.18,21.64-4.58,6.87-13.18,13.74-21.74,9.52-2.21-1.09-4.37-2.48-5.85-4.36-.88-1.13-1.52-2.43-1.78-3.97-.92-5.45,1.34-11.5,4.86-16.1,1.11-1.47,2.36-2.8,3.66-3.89.61-.51,1.26-.97,1.93-1.39.44-.29.9-.57,1.36-.85,3.78-2.27,10.58-2.42,13.26,1.75,1.66,2.5,1.12,5.51,1.1,8.31.42-.25.89-1.11,1.13-1.53,1.74-3.04,2.62-6.8,3.43-10.22.69-2.9,1.01-9.27.88-13.64-.29-9.9-2.41-22.17-6.63-31.98-5.43-12.63-14.29-22.33-26.09-28.63-6.83-3.65-15.47-4.93-22.02-4.54-10.12.6-19.65,4.31-28.21,10.42-12.2,8.71-21.63,24.04-24.85,38.78-1.36,6.18-2.45,13.09-2.2,19.6.33,8.65,1.36,16.57,3.6,24.2,1.41,4.82,2.8,9.27,4.8,13.8,4.06,9.31,10.48,17.84,18.64,24.46,14.16,11.51,29.36,16.33,43.99,16.18.11,0,.22.01.33.02h.05c.14,0,.29-.02.43-.02.02,0,.04,0,.06,0,.1.02.2.02.29,0,.43-.01.85-.05,1.27-.07.61-.03,1.21-.05,1.82-.1.54-.04,1.08-.1,1.61-.16.61-.06,1.21-.12,1.81-.2.53-.07,1.05-.15,1.57-.24.61-.09,1.22-.18,1.83-.29.5-.09,1-.2,1.5-.3.62-.13,1.25-.25,1.87-.4.47-.11.93-.24,1.4-.36.65-.17,1.29-.33,1.93-.51.43-.12.86-.26,1.29-.4.67-.21,1.33-.41,1.99-.64.39-.13.77-.28,1.16-.42.69-.25,1.39-.5,2.08-.77.34-.13.67-.28,1.01-.42.73-.3,1.45-.6,2.17-.93.29-.13.57-.27.85-.4.76-.35,1.52-.71,2.26-1.09.23-.12.46-.24.69-.36.79-.41,1.58-.83,2.36-1.27.17-.1.34-.2.51-.3.83-.48,1.66-.97,2.47-1.48.11-.07.21-.14.32-.21.87-.55,1.73-1.11,2.58-1.7.04-.03.09-.06.13-.1,18.82-13.03,32.33-34.36,34.24-57.48.03-.62.08-1.23.11-1.85.05-.87.08-1.75.1-2.63.01-.88.01-1.76-.01-2.64Z"/>
  </g>
</svg>
