<?xml version="1.0" encoding="UTF-8"?>
<svg id="Layer_1" xmlns="http://www.w3.org/2000/svg" version="1.1" viewBox="0 0 1080 1080">
  <defs>
    <style>
      .st0 { fill: #44593b; }
      .st1 { fill: #fff; }
    </style>
  </defs>
  <rect class="st0" width="1080" height="1080"/>
  <g>
    <g>
      <path class="st1" d="M316.33,667.99c-.36-5.81-1.76-11.32-4.18-16.53-2.42-5.21-5.94-9.45-10.54-12.72-4.61-3.27-10.48-4.91-17.62-4.91-7.51,0-13.26,2.12-17.26,6.36-4,4.24-6,9.21-6,14.9,0,5.09,1.45,9.36,4.36,12.81,2.91,3.45,6.69,6.48,11.36,9.08,4.66,2.61,9.6,5.12,14.81,7.54,4.6,2.06,9.2,4.27,13.81,6.63,4.6,2.36,8.78,5.06,12.54,8.08,3.75,3.03,6.75,6.63,8.99,10.81,2.24,4.18,3.36,9.18,3.36,14.99,0,6.66-1.67,12.6-5,17.81-3.33,5.21-8.15,9.3-14.45,12.26-6.3,2.97-13.99,4.45-23.07,4.45-5.45,0-11.08-.79-16.9-2.36s-10.96-3.88-15.44-6.9l.91,7.81h-9.45l-1.09-38.7h7.09c.6,10.66,4.3,18.75,11.08,24.26,6.78,5.51,14.96,8.27,24.53,8.27,4.72,0,9.08-.88,13.08-2.64,4-1.75,7.18-4.33,9.54-7.72,2.36-3.39,3.54-7.51,3.54-12.35,0-5.45-1.45-9.99-4.36-13.63-2.91-3.64-6.66-6.78-11.26-9.45-4.61-2.66-9.51-5.21-14.72-7.63-4.61-2.06-9.15-4.24-13.63-6.54-4.48-2.3-8.57-4.93-12.26-7.9-3.7-2.97-6.66-6.51-8.9-10.63-2.24-4.12-3.36-9.09-3.36-14.9,0-3.15.55-6.54,1.63-10.17,1.09-3.64,3-7.12,5.72-10.45,2.73-3.33,6.48-6.05,11.27-8.18,4.78-2.12,10.87-3.18,18.26-3.18,4.6,0,9.78.64,15.53,1.91,5.75,1.27,11.11,3.72,16.08,7.36l-.73-7.81h9.27v39.97h-6.54Z"/>
      <path class="st1" d="M425.53,759.57c-11.51,0-21.38-1.94-29.62-5.81-8.24-3.88-14.93-9.05-20.08-15.53-5.15-6.48-8.93-13.66-11.36-21.53-2.42-7.87-3.63-15.75-3.63-23.62s1.27-15.35,3.82-23.17,6.45-14.99,11.72-21.53c5.27-6.54,11.87-11.81,19.81-15.81,7.93-4,17.23-6,27.89-6s20.77,2,28.89,6c8.11,4,14.81,9.3,20.08,15.9,5.27,6.6,9.2,13.78,11.81,21.53,2.6,7.75,3.91,15.45,3.91,23.08s-1.27,15.17-3.82,22.98-6.45,15.02-11.72,21.62c-5.27,6.6-11.84,11.9-19.71,15.9-7.87,4-17.2,6-27.98,6ZM425.89,752.12c7.51,0,14.05-1.6,19.62-4.81,5.57-3.21,10.2-7.51,13.9-12.9,3.69-5.39,6.48-11.39,8.36-17.99,1.88-6.6,2.82-13.23,2.82-19.9,0-7.51-1.03-14.96-3.09-22.35-2.06-7.39-5.09-14.11-9.09-20.17-4-6.06-8.93-10.93-14.81-14.63-5.88-3.69-12.57-5.54-20.08-5.54s-14.08,1.64-19.71,4.91c-5.63,3.27-10.3,7.6-13.99,12.99-3.7,5.39-6.48,11.39-8.36,17.99-1.88,6.6-2.82,13.29-2.82,20.08s.94,13.63,2.82,20.9c1.88,7.27,4.75,14.05,8.63,20.35,3.88,6.3,8.78,11.39,14.72,15.26,5.93,3.88,12.96,5.81,21.08,5.81Z"/>
      <path class="st1" d="M560.17,758.48l-32.52-96.66c-2.06-6.42-3.7-11.48-4.91-15.17-1.21-3.69-2.12-6.87-2.73-9.54-1.7.12-3.39.18-5.09.18s-3.39.06-5.09.18v-8h44.15v6c-7.03.36-11.24,1.94-12.63,4.72-1.39,2.79-1.12,7.81.82,15.08,2.06,8,4.3,15.2,6.72,21.62,2.42,6.42,4.78,13.33,7.09,20.71,1.69,5.45,3.42,10.48,5.18,15.08,1.75,4.6,3.54,9.75,5.36,15.44h.36c.6-2.06,1.24-4.24,1.91-6.54.66-2.3,1.36-4.54,2.09-6.72.73-2.18,1.39-4.21,2-6.09.61-1.88,1.09-3.42,1.45-4.63,3.39-10.78,6.75-21.23,10.08-31.34,3.33-10.11,6.27-19.02,8.81-26.71,2.54-7.69,4.3-13.35,5.27-16.99h5.81c1.09,4,2.66,9.09,4.72,15.26,2.06,6.18,4.24,12.66,6.54,19.44,2.3,6.78,4.45,13.2,6.45,19.26,2,6.06,3.6,10.9,4.81,14.54,1.69,5.45,3.48,10.84,5.36,16.17,1.88,5.33,3.6,10.84,5.18,16.53h.55c1.09-3.51,2.27-7.27,3.54-11.27s2.57-8.05,3.91-12.17c3.15-8.96,5.72-16.47,7.72-22.53,2-6.06,3.63-11.08,4.91-15.08,1.27-4,2.36-7.48,3.27-10.45.91-2.97,1.84-5.84,2.82-8.63.73-2.06,1.54-4.27,2.45-6.63.91-2.36,1.97-4.57,3.18-6.63-2.42.12-4.85.21-7.27.27-2.42.06-4.85.15-7.27.27v-8h36.88v6c-4.12.48-7.36,1.39-9.72,2.73-2.36,1.33-4.45,3.82-6.27,7.45-1.82,3.64-4,9.21-6.54,16.72-5.57,16.48-10.99,32.68-16.26,48.61s-10.75,31.77-16.44,47.51h-5.45l-27.62-78.86c-1.09-3.15-2.15-6.24-3.18-9.27-1.03-3.03-2.09-6.06-3.18-9.09-.97,3.03-1.97,6.06-3,9.09-1.03,3.03-2.03,6.06-3,9.09l-25.98,79.04h-5.27Z"/>
      <path class="st1" d="M813.27,759.57l-72.5-97.39c-1.09-1.45-2.15-2.87-3.18-4.27-1.03-1.39-2.09-2.82-3.18-4.27h-.18l.55,77.77v9.08c0,3.03-.12,6-.36,8.9,2.18-.12,4.36-.24,6.54-.36,2.18-.12,4.36-.24,6.54-.36v8h-33.25v-6c3.75,0,6.45-.82,8.09-2.45,1.64-1.63,2.69-3.57,3.18-5.81.48-2.24.73-4.27.73-6.09l.18-87.4v-12.17c-1.94.12-3.94.25-6,.36-2.06.12-4.12.24-6.18.36v-8h21.62l68.14,91.21c1.57,2.06,3.12,4.12,4.63,6.18,1.51,2.06,3.06,4.12,4.63,6.18h.18l.18-83.22c0-2.42.06-4.75.18-7,.12-2.24.24-4.27.36-6.09-2.18.12-4.36.25-6.54.36-2.18.12-4.36.24-6.54.36v-8h33.43v6c-4.48.12-7.57,1.15-9.27,3.09-1.7,1.94-2.61,4.54-2.73,7.81-.12,3.27-.18,7.08-.18,11.45l-.36,101.75h-8.72Z"/>
    </g>
    <g>
      <path class="st1" d="M302.48,826.69c-2.43,0-4.56-.57-6.39-1.7-1.83-1.13-3.26-2.75-4.28-4.84s-1.54-4.57-1.54-7.44.51-5.38,1.54-7.47c1.02-2.09,2.44-3.71,4.25-4.84,1.81-1.13,3.87-1.7,6.2-1.7,1.44,0,2.78.21,4.03.64,1.25.43,2.37,1.04,3.36,1.83.99.79,1.81,1.74,2.46,2.83.65,1.09,1.1,2.3,1.35,3.61h-3.59c-.28-.88-.65-1.67-1.12-2.36s-1.02-1.29-1.66-1.79c-.64-.5-1.36-.88-2.17-1.14-.81-.26-1.69-.39-2.65-.39-1.6,0-3.05.41-4.36,1.23-1.31.83-2.34,2.04-3.11,3.64-.77,1.6-1.15,3.58-1.15,5.92s.39,4.28,1.16,5.87,1.83,2.81,3.16,3.64c1.33.83,2.83,1.25,4.5,1.25,1.54,0,2.89-.33,4.06-.98,1.17-.65,2.08-1.58,2.74-2.78.65-1.2.98-2.62.98-4.26l1.04.2h-8.11v-3.04h10.47v2.98c0,2.26-.48,4.21-1.44,5.87-.96,1.66-2.29,2.94-3.96,3.85s-3.6,1.36-5.77,1.36Z"/>
      <path class="st1" d="M325.49,826.33l9.9-27.27h4.03l10.03,27.27h-3.66l-5.78-16.18c-.35-1-.77-2.25-1.24-3.74-.47-1.49-1.04-3.4-1.71-5.72h.66c-.66,2.34-1.23,4.27-1.71,5.79-.48,1.52-.88,2.74-1.2,3.67l-5.62,16.18h-3.7ZM330.46,818.71v-3.04h14v3.04h-14Z"/>
      <path class="st1" d="M363.06,826.33v-27.27h9.33c2.12,0,3.87.36,5.24,1.09,1.37.73,2.39,1.72,3.06,2.99.67,1.27,1,2.71,1,4.34s-.33,3.06-1,4.3c-.66,1.25-1.68,2.22-3.05,2.92-1.37.7-3.11,1.05-5.23,1.05h-7.41v-3.09h7.25c1.44,0,2.6-.21,3.47-.63.87-.42,1.51-1.02,1.91-1.79s.6-1.69.6-2.75-.2-2.03-.6-2.83c-.4-.8-1.04-1.42-1.92-1.87-.88-.44-2.04-.67-3.49-.67h-5.67v24.21h-3.48ZM378.72,826.33l-6.59-12.28h3.92l6.7,12.28h-4.03Z"/>
      <path class="st1" d="M400.02,799.06v27.27h-3.48v-27.27h3.48ZM405.05,826.33h-6.59v-3.08h6.37c2.22,0,4.06-.42,5.52-1.27,1.46-.85,2.55-2.06,3.27-3.65s1.08-3.48,1.08-5.69-.36-4.06-1.07-5.63-1.78-2.77-3.18-3.61-3.17-1.26-5.28-1.26h-6.84v-3.07h7.08c2.66,0,4.93.54,6.82,1.63,1.89,1.08,3.33,2.64,4.34,4.68,1.01,2.03,1.51,4.45,1.51,7.27s-.51,5.29-1.52,7.33c-1.01,2.05-2.49,3.61-4.43,4.71-1.94,1.1-4.29,1.65-7.06,1.65Z"/>
      <path class="st1" d="M432.96,826.33v-27.27h16.62v3.07h-13.14v8.89h12.24v3.07h-12.24v9.15h13.3v3.08h-16.78Z"/>
      <path class="st1" d="M464.85,826.33v-27.27h4.1l11.09,17.44c.29.45.65,1.03,1.06,1.74.41.71.86,1.51,1.35,2.4.48.89.95,1.84,1.42,2.85h-.49c-.11-1.05-.19-2.05-.24-3.01-.05-.96-.08-1.84-.09-2.64-.01-.81-.02-1.49-.02-2.05v-16.73h3.48v27.27h-4.14l-9.88-15.52c-.45-.72-.91-1.46-1.36-2.22-.46-.76-.98-1.67-1.56-2.71-.59-1.04-1.31-2.33-2.18-3.87h.64c.06,1.35.12,2.6.16,3.75.05,1.15.09,2.15.12,3,.03.85.05,1.53.05,2.01v15.55h-3.5Z"/>
      <path class="st1" d="M520.03,826.33l9.9-27.27h4.03l10.03,27.27h-3.66l-5.78-16.18c-.35-1-.77-2.25-1.24-3.74-.47-1.49-1.04-3.4-1.71-5.72h.66c-.66,2.34-1.23,4.27-1.71,5.79-.48,1.52-.88,2.74-1.2,3.67l-5.62,16.18h-3.7ZM525.01,818.71v-3.04h14v3.04h-14Z"/>
      <path class="st1" d="M557.6,826.33v-27.27h4.1l11.09,17.44c.29.45.65,1.03,1.06,1.74.41.71.86,1.51,1.35,2.4.48.89.95,1.84,1.42,2.85h-.49c-.11-1.05-.19-2.05-.24-3.01-.05-.96-.08-1.84-.09-2.64-.01-.81-.02-1.49-.02-2.05v-16.73h3.48v27.27h-4.14l-9.88-15.52c-.45-.72-.91-1.46-1.36-2.22-.46-.76-.98-1.67-1.56-2.71-.59-1.04-1.31-2.33-2.18-3.87h.64c.06,1.35.12,2.6.16,3.75.05,1.15.09,2.15.12,3,.03.85.05,1.53.05,2.01v15.55h-3.5Z"/>
      <path class="st1" d="M598.68,799.06v27.27h-3.48v-27.27h3.48ZM603.71,826.33h-6.59v-3.08h6.37c2.22,0,4.06-.42,5.52-1.27,1.46-.85,2.55-2.06,3.27-3.65s1.08-3.48,1.08-5.69-.36-4.06-1.07-5.63-1.78-2.77-3.18-3.61-3.17-1.26-5.28-1.26h-6.84v-3.07h7.08c2.66,0,4.93.54,6.82,1.63,1.89,1.08,3.33,2.64,4.34,4.68,1.01,2.03,1.51,4.45,1.51,7.27s-.51,5.29-1.52,7.33c-1.01,2.05-2.49,3.61-4.43,4.71-1.94,1.1-4.29,1.65-7.06,1.65Z"/>
      <path class="st1" d="M651.53,826.33v-27.27h3.48v11.78h14.31v-11.78h3.48v27.27h-3.48v-12.41h-14.31v12.41h-3.48Z"/>
      <path class="st1" d="M699.8,826.69c-2.33,0-4.41-.57-6.23-1.69-1.82-1.13-3.26-2.74-4.31-4.83-1.05-2.09-1.57-4.58-1.57-7.46s.52-5.38,1.57-7.47c1.05-2.09,2.48-3.71,4.31-4.84,1.82-1.13,3.9-1.7,6.23-1.7s4.4.57,6.22,1.7c1.82,1.13,3.25,2.75,4.29,4.84,1.04,2.09,1.56,4.58,1.56,7.47s-.52,5.36-1.56,7.46c-1.04,2.09-2.47,3.7-4.29,4.83-1.82,1.13-3.89,1.69-6.22,1.69ZM699.8,823.47c1.62,0,3.09-.41,4.4-1.24,1.31-.82,2.35-2.04,3.13-3.64s1.16-3.57,1.16-5.88-.39-4.32-1.16-5.92c-.77-1.61-1.82-2.82-3.13-3.64-1.31-.82-2.78-1.23-4.4-1.23s-3.11.41-4.43,1.24c-1.32.83-2.36,2.05-3.14,3.65s-1.16,3.57-1.16,5.9.39,4.28,1.16,5.87,1.82,2.81,3.14,3.64c1.32.83,2.79,1.25,4.43,1.25Z"/>
      <path class="st1" d="M726.77,826.33v-27.27h4.94l6.72,17.2c.16.4.34.91.54,1.51.2.6.41,1.26.64,1.97.23.71.44,1.41.65,2.11.21.7.39,1.35.55,1.95h-.77c.17-.56.36-1.19.57-1.88.21-.69.42-1.39.65-2.1.23-.71.44-1.38.65-2,.21-.62.39-1.14.55-1.56l6.62-17.2h4.96v27.27h-3.42v-15.57c0-.56,0-1.2,0-1.92,0-.72.02-1.48.04-2.27.02-.79.04-1.6.06-2.42s.03-1.61.05-2.38h.29c-.26.84-.53,1.7-.81,2.57-.29.87-.57,1.71-.84,2.52-.27.81-.53,1.55-.78,2.22-.24.67-.45,1.23-.62,1.67l-6.09,15.57h-3.02l-6.19-15.57c-.17-.43-.37-.97-.6-1.62-.23-.65-.48-1.38-.76-2.18-.27-.8-.56-1.64-.85-2.53-.29-.89-.59-1.77-.9-2.66h.33c.02.68.05,1.42.06,2.21.02.79.03,1.6.05,2.41.01.81.02,1.59.04,2.34.01.75.02,1.43.02,2.02v15.57h-3.31Z"/>
      <path class="st1" d="M770,826.33v-27.27h16.62v3.07h-13.14v8.89h12.24v3.07h-12.24v9.15h13.3v3.08h-16.78Z"/>
    </g>
  </g>
  <path class="st1" d="M592.38,461.68c-13.82-19.84-35.81-31.11-54.31-45.09l-.06.07c-27.03-18.54-56.33-40.93-62.15-75.1-8.54-47.21,28.52-88.39,76.78-79.26,21.85,4.22,38.28,22.23,44.7,43.1,6.4,20.58,6.7,45.01-5.76,63.41-16.06,24.08-46.46,32.27-69.38,12.42-8.27-6.93-15.11-15.98-17.71-26.56-2.75-10.64-3.5-22.12-2.28-33.06.2-1.69.49-3.36.83-5.01-.03,0-.06,0-.09.01,2.49-3.7,6.19-6.44,10.19-8.34.71-.34.09-1.38-.61-1.05-3.52,1.67-6.81,4.01-9.31,7.01.41-1.62.92-3.53,1.11-3.88,1.14-2.14,2.81-3.96,4.92-5.17,3.64-2.1,7.71-3.26,11.66-4.62-.11.04-.8,4.77-.96,5.29-.52,1.64-1.38,3.23-2.48,4.56-1.45,1.76-3.24,3.01-5.21,3.93-2.64,1.22-5.51,1.82-8.4,2.16.5.45,1.02.89,1.64,1.3,12.17,8,25.26-4.91,27.16-16.53,1.15-7.01-3.42-13.37-10.29-14.6-6.01-1.07-12.03,2.2-15.94,6.58-3.36,3.77-5.28,8.49-7.15,13.11-2.04,5.04-3.2,10.38-3.76,15.77s-.53,11.04-.28,16.55c.63,8.97,2.07,18.02,5.71,26.4,9.27,19.08,28.78,34.72,50.66,34.51,31.68-.46,56.41-30.6,57.24-61.03,3.18-53.26-35.38-97.81-90.74-82.05-50.94,15.21-65.51,78.3-36.39,119.72,13.51,19.56,32.7,34.03,51.95,47.23l.04-.05c18.13,13.76,39,24.2,52.13,42.87,26.89,37.75,20.08,93.53-26.78,110.72-50.08,16.71-85.98-23.01-83.93-71.58-.2-32.81,31.1-65.54,64.72-53.51,14.85,5.93,27.95,19.04,32.2,34.79,2.84,10.72,3.62,22.3,2.41,33.33-.16,1.38-.39,2.74-.65,4.1-1.89,4.23-5.23,7.64-9.04,10.19-.65.43-.04,1.49.61,1.05,3.26-2.18,6.22-4.97,8.27-8.34-.17,1.67-.4,3.62-.53,4-.81,2.28-2.21,4.32-4.11,5.83-3.29,2.6-7.16,4.35-10.87,6.26.1-.05.1-4.83.19-5.37.27-1.7.9-3.39,1.8-4.87,1.18-1.95,2.76-3.45,4.58-4.64,2.42-1.59,5.16-2.59,7.95-3.35-.32-.28-.65-.55-1.02-.81-11.84-8.48-25.43,3.89-27.8,15.42-1.43,6.96,2.88,13.5,9.69,15,5.96,1.31,12.11-1.71,16.19-5.93,2.66-2.76,5.01-6.28,6.23-9.93,8.45-17.26,7.02-45.07-.48-62.49-6.9-13.85-18.67-25.11-33.11-30.86-34.33-13.19-69.53,16.9-73.87,50.76-4.5,32.64,8.09,70.73,39.22,85.88,41.35,19.43,91.44-6.09,100.13-50.92,5.04-24.07-1.67-49.36-15.49-69.35Z"/>
</svg>
